<?xml version="1.0" encoding="utf-8"?>
<!-- Generator: Adobe Illustrator 25.2.3, SVG Export Plug-In . SVG Version: 6.00 Build 0)  -->
<svg version="1.1" id="Capa_1" xmlns="http://www.w3.org/2000/svg" xmlns:xlink="http://www.w3.org/1999/xlink" x="0px" y="0px"
	 viewBox="0 0 49 49" style="enable-background:new 0 0 49 49;" xml:space="preserve">
<style type="text/css">
	.st0{clip-path:url(#SVGID_2_);fill:#575757;}
	.st1{clip-path:url(#SVGID_2_);fill:#FFFFFF;}
	.st2{clip-path:url(#SVGID_2_);}
	.st3{fill:#575757;}
	.st4{fill:#FFFFFF;}
	.st5{fill:#B7B7B6;}
</style>
<g>
	<defs>
		<circle id="SVGID_1_" cx="24.5" cy="24.5" r="22.5"/>
	</defs>
	<clipPath id="SVGID_2_">
		<use xlink:href="#SVGID_1_"  style="overflow:visible;"/>
	</clipPath>
	<rect x="-0.9" y="35.1" class="st0" width="52.8" height="12.4"/>
	<rect x="-0.6" y="-0.2" class="st1" width="55.8" height="31.5"/>
	<g class="st2">
		<g>
			<g>
				<polygon class="st3" points="28.4,11.1 52,35.6 3,35.6 				"/>
				<polygon class="st3" points="-2.7,35.6 15.5,17.6 30.3,35.6 				"/>
				<polyline class="st4" points="20.5,37 19.2,35.6 14.6,28.3 16.3,26.4 15.4,20.1 25.1,32.7 22,35.6 				"/>
				<line class="st4" x1="1.3" y1="35.6" x2="-1" y2="35.6"/>
				<polygon class="st4" points="39.7,25.1 28.9,14 30.6,20.4 28.8,21.1 34.2,30.2 				"/>
				<path class="st5" d="M33.7,28.6"/>
				<polygon class="st5" points="32.9,28 32.7,24.6 31.5,21.7 33.1,22.1 30.7,17 34.3,19.6 28.9,14 30.6,20.4 28.8,21.1 				"/>
				<polygon class="st5" points="17.7,33.1 16.6,28.6 18.7,29.7 16.9,24.1 20.3,26.4 15.4,20.1 16.3,26.4 14.6,28.3 17.3,32.4 				
					"/>
				<line class="st5" x1="-1" y1="35.6" x2="-0.2" y2="35.6"/>
			</g>
		</g>
	</g>
	<use xlink:href="#SVGID_1_"  style="overflow:visible;fill:none;stroke:#4F4F4F;stroke-width:2;stroke-miterlimit:10;"/>
</g>
</svg>
